<svg width="618" height="287" viewBox="0 0 618 287" fill="none" xmlns="http://www.w3.org/2000/svg">
<rect x="41" y="61.244" width="577" height="203" rx="101.5" fill="#5267DF"/>
<g filter="url(#filter0_d)">
<rect x="40" y="10" width="310.769" height="206.488" rx="14" fill="#777777"/>
</g>
<rect x="41.0754" y="11.0727" width="308.742" height="204.806" rx="13" fill="url(#paint0_linear)"/>
<rect opacity="0.1" x="69.0503" y="18.7438" width="253.488" height="189.731" rx="5" fill="#2A2A2A"/>
<rect x="51.3074" y="20.3528" width="288.187" height="185.571" rx="8" fill="#E8EAF6"/>
<mask id="mask0" mask-type="alpha" maskUnits="userSpaceOnUse" x="51" y="20" width="289" height="186">
<rect x="51.3074" y="20.3528" width="288.187" height="185.571" rx="8" fill="white"/>
</mask>
<g mask="url(#mask0)">
<rect x="49.4092" y="20.4584" width="294.101" height="31.6436" fill="#5267DF"/>
<ellipse opacity="0.244768" cx="71.991" cy="36.5484" rx="8.6026" ry="8.58132" fill="white"/>
<ellipse opacity="0.104399" cx="319.854" cy="36.5484" rx="8.6026" ry="8.58132" fill="white"/>
<rect opacity="0.75" x="88.6584" y="31.1851" width="64.5195" height="3.21799" rx="1.609" fill="white"/>
<rect opacity="0.25" x="88.6584" y="38.6938" width="34.4104" height="3.21799" rx="1.609" fill="white"/>
<rect x="81.9541" y="70.2317" width="140.33" height="169.481" rx="8" fill="white"/>
<rect x="240.564" y="70.2317" width="68.8208" height="169.481" rx="8" fill="white"/>
<rect opacity="0.5" x="124.144" y="90.718" width="64.5195" height="3.21799" rx="1.609" fill="#242A45"/>
</g>
<ellipse cx="107.487" cy="95.1725" rx="8.60215" ry="8.57143" fill="#F98E5D"/>
<rect opacity="0.25" x="251.573" y="81.244" width="47.3118" height="3.21429" rx="1.60714" fill="#242A45"/>
<rect opacity="0.25" x="251.573" y="91.9583" width="47.3118" height="3.21429" rx="1.60714" fill="#242A45"/>
<rect opacity="0.25" x="251.573" y="102.673" width="47.3118" height="3.21429" rx="1.60714" fill="#242A45"/>
<rect opacity="0.25" x="251.573" y="113.387" width="47.3118" height="3.21429" rx="1.60714" fill="#242A45"/>
<rect opacity="0.25" x="251.573" y="131.601" width="47.3118" height="3.21429" rx="1.60714" fill="#242A45"/>
<rect opacity="0.25" x="251.573" y="142.315" width="47.3118" height="3.21429" rx="1.60714" fill="#242A45"/>
<rect opacity="0.25" x="251.573" y="153.03" width="47.3118" height="3.21429" rx="1.60714" fill="#242A45"/>
<rect opacity="0.25" x="124.153" y="97.3154" width="34.4086" height="3.21429" rx="1.60714" fill="#242A45"/>
<ellipse cx="107.507" cy="125.744" rx="8.62275" ry="8.5" fill="#6AC6D6"/>
<rect opacity="0.5" x="124.214" y="120.431" width="64.6707" height="3.1875" rx="1.59375" fill="#242A45"/>
<rect opacity="0.25" x="124.214" y="127.869" width="34.491" height="3.1875" rx="1.59375" fill="#242A45"/>
<ellipse cx="107.507" cy="155.744" rx="8.62275" ry="8.5" fill="#A47ED4"/>
<rect opacity="0.5" x="124.214" y="150.431" width="64.6707" height="3.1875" rx="1.59375" fill="#242A45"/>
<rect opacity="0.25" x="124.214" y="157.869" width="34.491" height="3.1875" rx="1.59375" fill="#242A45"/>
<ellipse cx="107.507" cy="185.744" rx="8.62275" ry="8.5" fill="#EC7878"/>
<rect opacity="0.5" x="124.214" y="180.431" width="64.6707" height="3.1875" rx="1.59375" fill="#242A45"/>
<rect opacity="0.25" x="124.214" y="187.869" width="34.491" height="3.1875" rx="1.59375" fill="#242A45"/>
<defs>
<filter id="filter0_d" x="0" y="0" width="390.769" height="286.488" filterUnits="userSpaceOnUse" color-interpolation-filters="sRGB">
<feFlood flood-opacity="0" result="BackgroundImageFix"/>
<feColorMatrix in="SourceAlpha" type="matrix" values="0 0 0 0 0 0 0 0 0 0 0 0 0 0 0 0 0 0 127 0"/>
<feOffset dy="30"/>
<feGaussianBlur stdDeviation="20"/>
<feColorMatrix type="matrix" values="0 0 0 0 0.182433 0 0 0 0 0.230633 0 0 0 0 0.506058 0 0 0 0.20012 0"/>
<feBlend mode="normal" in2="BackgroundImageFix" result="effect1_dropShadow"/>
<feBlend mode="normal" in="SourceGraphic" in2="effect1_dropShadow" result="shape"/>
</filter>
<linearGradient id="paint0_linear" x1="495.691" y1="115.071" x2="313.665" y2="-159.33" gradientUnits="userSpaceOnUse">
<stop stop-color="#151515"/>
<stop offset="1" stop-color="#3D3D3D"/>
</linearGradient>
</defs>
</svg>
